<svg width="3037" height="2655" viewBox="0 0 3037 2655" fill="none" xmlns="http://www.w3.org/2000/svg">
<path d="M2256.51 60.8663L120.618 1421.05C77.6748 1448.4 65.0318 1505.38 92.3792 1548.33L635.043 2400.46C662.39 2443.41 719.372 2456.05 762.315 2428.7L2898.2 1068.52C2941.15 1041.17 2953.79 984.188 2926.44 941.245L2383.78 89.1054C2356.43 46.162 2299.45 33.519 2256.51 60.8663Z" fill="#91CD86"/>
<path d="M2527.65 315.387L2782.61 715.389C2744.55 739.629 2711.63 771.129 2685.74 808.092C2659.85 845.054 2641.5 886.754 2631.73 930.811C2621.95 974.867 2620.95 1020.42 2628.79 1064.86C2636.62 1109.3 2653.13 1151.77 2677.37 1189.83C2680.29 1194.44 2683.36 1198.97 2686.44 1203.43L974.196 2293.89C971.43 2289.28 968.588 2284.51 965.669 2279.9C941.447 2241.82 909.96 2208.88 873.006 2182.97C836.052 2157.06 794.355 2138.68 750.298 2128.89C706.24 2119.09 660.684 2118.07 616.232 2125.89C571.781 2133.7 529.304 2150.2 491.228 2174.43L236.263 1774.28C274.327 1750.04 307.244 1718.53 333.134 1681.57C359.024 1644.61 377.379 1602.91 387.152 1558.85C396.925 1514.8 397.924 1469.25 390.092 1424.8C382.26 1380.36 365.75 1337.9 341.506 1299.84C338.587 1295.23 335.514 1290.69 332.441 1286.24L2044.37 195.778C2047.14 200.388 2049.98 205.15 2052.9 209.76C2077.11 247.897 2108.6 280.887 2145.58 306.84C2182.55 332.794 2224.28 351.203 2268.37 361.014C2312.47 370.825 2358.06 371.845 2402.55 364.016C2447.04 356.186 2489.55 339.662 2527.65 315.387Z" fill="#A9EA9C"/>
<path d="M713.084 2489.39C689.795 2489.43 666.874 2483.58 646.448 2472.4C626.022 2461.21 608.752 2445.04 596.24 2425.4L53.5073 1573.16C33.8091 1542.23 27.2023 1504.75 35.1401 1468.95C43.0778 1433.15 64.9101 1401.97 95.8351 1382.26L2231.43 22.0888C2262.36 2.39059 2299.85 -4.21618 2335.64 3.7216C2371.44 11.6594 2402.62 33.4917 2422.33 64.4166L2964.98 916.581C2984.68 947.509 2991.29 984.996 2983.35 1020.79C2975.41 1056.59 2953.58 1087.77 2922.66 1107.48L787.061 2467.65C764.98 2481.81 739.312 2489.35 713.084 2489.39ZM2305.56 92.6096C2296.88 92.5984 2288.37 95.0779 2281.06 99.7538L145.384 1460.01C135.129 1466.62 127.915 1477.03 125.323 1488.95C122.731 1500.87 124.972 1513.34 131.556 1523.61L673.982 2375.78C680.607 2386.02 691.022 2393.22 702.945 2395.79C714.867 2398.37 727.325 2396.12 737.589 2389.53L2873.49 1029.81C2883.8 1023.25 2891.08 1012.86 2893.73 1000.94C2896.38 989.009 2894.18 976.517 2887.63 966.207L2344.89 113.889C2338.31 103.622 2327.92 96.3847 2316.01 93.7619C2312.58 92.9904 2309.08 92.6039 2305.56 92.6096Z" fill="#1D6855"/>
<path d="M263.687 1513.78L643.255 1272.03C655.7 1264.34 644.177 1244.14 631.655 1252.13L252.011 1493.58C239.566 1501.26 251.089 1521.46 263.61 1513.47L263.687 1513.78Z" fill="white"/>
<path d="M698.489 1236.54L884.854 1117.85C897.299 1110.17 885.776 1089.96 873.255 1097.95L686.812 1216.64C674.368 1224.32 685.891 1244.53 698.412 1236.54H698.489Z" fill="white"/>
<path d="M761.866 2326.3L1642.84 1765.52L1765.75 1687.01C1778.19 1679.33 1766.67 1659.12 1754.15 1667.11L873.562 2228.2L750.65 2306.71C738.205 2314.4 749.728 2334.6 762.25 2326.61L761.866 2326.3Z" fill="white"/>
<path d="M2030.24 1523.38L2679.83 1109.71L2772.47 1050.71C2784.92 1043.03 2773.4 1022.82 2760.87 1030.81L2111.36 1444.64L2018.72 1503.64C2006.27 1511.32 2017.79 1531.52 2030.32 1523.53L2030.24 1523.38Z" fill="white"/>
<path d="M1594.67 1265.96C1571.09 1228.93 1533.98 1217.79 1477.21 1230.24C1434.96 1237.92 1415.76 1240.76 1405.31 1223.94C1397.63 1211.57 1401.93 1191.37 1427.74 1174.93C1446.14 1162.73 1467.23 1155.19 1489.2 1152.96L1472.6 1097.19C1448.35 1100.03 1425.08 1108.44 1404.62 1121.77L1376.04 1076.75L1331.1 1105.33L1362.91 1155.34C1331.41 1190.83 1327.03 1232.85 1349.08 1267.5C1373.35 1305.91 1416.45 1311.36 1470.3 1299.22C1508.17 1289.31 1526.99 1291.54 1536.98 1306.9C1548.43 1324.88 1540.97 1345.31 1513.93 1362.52C1491.07 1376.49 1465.43 1385.28 1438.8 1388.26L1456.09 1445.1C1482.56 1441.55 1508.06 1432.72 1531.06 1419.14L1559.79 1464.31L1604.73 1435.73L1597.59 1424.52L1573.85 1387.18C1614.87 1347.16 1617.41 1301.68 1594.67 1265.96Z" fill="#34B67A"/>
<path d="M1468.76 1722.73C1390.3 1722.85 1313.16 1702.53 1244.94 1663.76C1176.73 1624.99 1119.79 1569.12 1079.74 1501.64C1039.7 1434.17 1017.92 1357.42 1016.57 1278.97C1015.22 1200.52 1034.33 1123.07 1072.02 1054.25C1109.72 985.438 1164.69 927.632 1231.53 886.533C1298.37 845.434 1374.76 822.461 1453.18 819.878C1531.6 817.294 1609.35 835.19 1678.74 871.801C1748.14 908.411 1806.8 962.474 1848.94 1028.66C1892.4 1096.87 1916.74 1175.49 1919.42 1256.32C1922.09 1337.15 1903 1417.22 1864.15 1488.15C1825.3 1559.08 1768.11 1618.27 1698.55 1659.54C1629 1700.8 1549.64 1722.63 1468.76 1722.73ZM1467.3 896.299C1384.09 896.425 1303.29 924.227 1237.61 975.326C1171.94 1026.43 1125.13 1097.92 1104.56 1178.55C1083.98 1259.17 1090.81 1344.35 1123.97 1420.67C1157.13 1496.99 1214.73 1560.11 1287.71 1600.1C1360.68 1640.08 1444.89 1654.65 1527.05 1641.51C1609.22 1628.38 1684.69 1588.29 1741.56 1527.55C1798.44 1466.81 1833.5 1388.88 1841.21 1306.03C1848.93 1223.17 1828.87 1140.11 1784.18 1069.91C1757.85 1028.32 1723.53 992.356 1683.21 964.111C1642.88 935.867 1597.36 915.899 1549.27 905.363C1522.36 899.362 1494.87 896.323 1467.3 896.299Z" fill="#91CD86"/>
<path d="M2611.17 683.716L166.384 1343.37C117.23 1356.63 88.1344 1407.23 101.397 1456.39L364.574 2431.76C377.837 2480.92 428.436 2510.01 477.59 2496.75L2922.38 1837.1C2971.53 1823.83 3000.63 1773.23 2987.36 1724.08L2724.19 748.703C2710.92 699.549 2660.32 670.453 2611.17 683.716Z" fill="#91CD86"/>
<path d="M2793.91 1007.46L2917.51 1465.69C2873.94 1477.44 2833.11 1497.66 2797.35 1525.19C2761.59 1552.72 2731.6 1587.03 2709.11 1626.15C2686.61 1665.27 2672.03 1708.44 2666.22 1753.19C2660.41 1797.94 2663.46 1843.4 2675.22 1886.97C2676.68 1892.27 2678.22 1897.5 2679.83 1902.34L719.922 2431.4C718.692 2426.17 717.387 2420.79 716.004 2415.49C704.254 2371.92 684.037 2331.09 656.506 2295.33C628.975 2259.57 594.67 2229.59 555.549 2207.09C516.429 2184.59 473.259 2170.02 428.506 2164.2C383.754 2158.39 338.294 2161.45 294.723 2173.2L171.12 1714.97C214.692 1703.22 255.524 1683.01 291.282 1655.47C327.041 1627.94 357.026 1593.64 379.525 1554.52C402.024 1515.4 416.597 1472.23 422.411 1427.48C428.225 1382.72 425.166 1337.26 413.41 1293.69C411.95 1288.39 410.414 1283.17 408.801 1278.33L2368.71 749.269C2369.94 754.492 2371.24 759.87 2372.63 765.17C2384.38 808.743 2404.59 849.574 2432.12 885.333C2459.66 921.091 2493.96 951.076 2533.08 973.576C2572.2 996.075 2615.37 1010.65 2660.12 1016.46C2704.88 1022.28 2750.34 1019.22 2793.91 1007.46Z" fill="#A9EA9C"/>
<path d="M453.431 2546.09C423.058 2545.98 393.559 2535.91 369.456 2517.43C345.354 2498.94 327.979 2473.07 319.995 2443.76L56.8864 1468.15C52.1688 1450.6 50.9543 1432.3 53.3125 1414.29C55.6706 1396.28 61.5551 1378.91 70.6296 1363.17C79.7042 1347.43 91.7909 1333.63 106.199 1322.57C120.607 1311.51 137.055 1303.39 154.601 1298.68L2599.17 639.413C2616.7 634.68 2634.99 633.447 2653 635.785C2671.01 638.123 2688.39 643.985 2704.13 653.038C2719.87 662.09 2733.68 674.156 2744.76 688.544C2755.84 702.933 2763.98 719.364 2768.71 736.898L3031.82 1712.51C3036.55 1730.05 3037.78 1748.34 3035.45 1766.35C3033.11 1784.36 3027.25 1801.73 3018.19 1817.48C3009.14 1833.22 2997.07 1847.03 2982.69 1858.11C2968.3 1869.19 2951.87 1877.32 2934.33 1882.05L489.46 2541.32C477.712 2544.49 465.598 2546.09 453.431 2546.09ZM2635.12 726.758C2631.1 726.768 2627.09 727.311 2623.21 728.371L178.339 1387.87C172.466 1389.45 166.963 1392.17 162.147 1395.88C157.331 1399.59 153.296 1404.22 150.276 1409.49C147.255 1414.77 145.309 1420.59 144.548 1426.62C143.787 1432.66 144.228 1438.78 145.844 1444.64L408.952 2420.25C412.137 2432.05 419.872 2442.09 430.459 2448.19C441.046 2454.28 453.619 2455.92 465.415 2452.75L2910.29 1793.25C2916.19 1791.72 2921.72 1789.03 2926.58 1785.34C2931.43 1781.65 2935.5 1777.04 2938.56 1771.76C2941.62 1766.49 2943.6 1760.67 2944.39 1754.62C2945.18 1748.58 2944.76 1742.44 2943.17 1736.56L2679.67 760.943C2676.98 751.166 2671.15 742.541 2663.09 736.383C2655.04 730.224 2645.18 726.871 2635.04 726.835L2635.12 726.758Z" fill="#1D6855"/>
<path d="M507.974 2398.74L1516.31 2126.72L1657.43 2088.31C1660.29 2087.43 1662.7 2085.46 1664.14 2082.84C1665.58 2080.21 1665.93 2077.12 1665.13 2074.23C1664.34 2071.34 1662.44 2068.88 1659.86 2067.36C1657.27 2065.85 1654.2 2065.4 1651.29 2066.11L643.1 2338.52L501.982 2376.93C499.119 2377.81 496.713 2379.78 495.274 2382.41C493.836 2385.04 493.479 2388.12 494.278 2391.01C495.078 2393.9 496.971 2396.36 499.557 2397.88C502.143 2399.39 505.217 2399.84 508.128 2399.13L507.974 2398.74Z" fill="white"/>
<path d="M1958.56 2011.72L2702.11 1811.15L2808.12 1782.65C2810.98 1781.76 2813.39 1779.8 2814.82 1777.17C2816.26 1774.54 2816.62 1771.45 2815.82 1768.56C2815.02 1765.68 2813.13 1763.21 2810.54 1761.7C2807.96 1760.18 2804.88 1759.73 2801.97 1760.45L2058.43 1961.02L1952.19 1989.52C1949.33 1990.41 1946.92 1992.37 1945.48 1995C1944.04 1997.63 1943.69 2000.72 1944.49 2003.61C1945.28 2006.5 1947.18 2008.96 1949.76 2010.47C1952.35 2011.99 1955.42 2012.44 1958.33 2011.72H1958.56Z" fill="white"/>
<path d="M1619.33 1636C1607.88 1593.6 1575.85 1571.93 1517.93 1566.86C1475.21 1561.87 1456.47 1558.64 1451.25 1539.36C1447.4 1525.23 1457.78 1507.25 1487.35 1499.26C1508.66 1493.09 1531.16 1492.22 1552.88 1496.73L1553.72 1438.57C1529.73 1434.05 1505.02 1435.13 1481.51 1441.72L1467.61 1390.1L1416.22 1404L1431.58 1461.24C1390.94 1485.66 1374.2 1524.46 1384.87 1564.1C1396.63 1607.81 1436.11 1626.09 1491.04 1630.62C1530.14 1632.47 1547.42 1640.23 1552.49 1658.2C1558.03 1678.79 1544.81 1696.15 1514.08 1704.29C1488.08 1710.82 1460.97 1711.55 1434.65 1706.44L1434.11 1765.9C1460.46 1770.43 1487.44 1769.62 1513.47 1763.52L1527.45 1815.22L1578.84 1801.32L1575.39 1788.49L1563.86 1745.78C1614.18 1719.5 1630.39 1676.87 1619.33 1636Z" fill="#34B67A"/>
<path d="M1496.19 2054.97C1411.95 2054.84 1329.42 2031.15 1257.94 1986.59C1186.45 1942.02 1128.85 1878.35 1091.64 1802.77C1054.44 1727.19 1039.11 1642.72 1047.39 1558.88C1055.67 1475.05 1087.22 1395.2 1138.49 1328.36C1189.76 1261.52 1258.7 1210.35 1337.53 1180.62C1416.35 1150.9 1501.91 1143.81 1584.55 1160.16C1667.19 1176.5 1743.61 1215.63 1805.18 1273.12C1866.75 1330.62 1911.02 1404.18 1932.98 1485.51C1950.95 1552.52 1953.27 1622.77 1939.74 1690.82C1926.22 1758.87 1897.23 1822.89 1855 1877.94C1812.77 1932.99 1758.45 1977.59 1696.23 2008.29C1634.01 2038.99 1565.57 2054.96 1496.19 2054.97ZM1496.8 1228.31C1418.47 1228.33 1342.11 1252.9 1278.45 1298.55C1214.8 1344.2 1167.05 1408.65 1141.91 1482.84C1116.77 1557.03 1115.51 1637.24 1138.3 1712.18C1161.1 1787.12 1206.8 1853.04 1268.99 1900.67C1331.18 1948.31 1406.73 1975.26 1485.02 1977.74C1563.32 1980.22 1640.42 1958.1 1705.5 1914.51C1770.58 1870.91 1820.36 1808.01 1847.85 1734.66C1875.35 1661.31 1879.17 1581.19 1858.78 1505.56C1837.44 1425.91 1790.38 1355.54 1724.92 1305.41C1659.45 1255.27 1579.26 1228.16 1496.8 1228.31Z" fill="#91CD86"/>
<path d="M2711.95 1414.81L181.578 1318.04C130.703 1316.1 87.8838 1355.76 85.9383 1406.63L47.3328 2416.16C45.3873 2467.03 85.0522 2509.85 135.927 2511.8L2666.29 2608.56C2717.17 2610.51 2759.99 2570.84 2761.93 2519.97L2800.54 1510.44C2802.48 1459.57 2762.82 1416.75 2711.95 1414.81Z" fill="#91CD86"/>
<path d="M2790.14 1778.35L2771.94 2252.56C2726.83 2250.82 2681.82 2257.98 2639.48 2273.65C2597.15 2289.31 2558.31 2313.16 2525.2 2343.83C2492.08 2374.51 2465.33 2411.41 2446.48 2452.43C2427.63 2493.44 2417.05 2537.77 2415.34 2582.88V2599.24L387.289 2521.5C387.289 2516.12 388.058 2510.67 388.211 2505.14C389.949 2460.03 382.782 2415.02 367.12 2372.69C351.458 2330.35 327.608 2291.52 296.932 2258.4C266.256 2225.28 229.355 2198.54 188.339 2179.69C147.322 2160.84 102.993 2150.25 57.8853 2148.54L76.0916 1674.33C121.199 1676.07 166.206 1668.9 208.543 1653.24C250.879 1637.58 289.715 1613.73 322.831 1583.05C355.947 1552.38 382.694 1515.48 401.544 1474.46C420.394 1433.44 430.978 1389.11 432.69 1344.01C432.69 1338.55 432.69 1333.02 432.69 1327.64L2460.74 1405.38C2460.74 1410.76 2459.97 1416.22 2459.82 1421.75C2458.08 1466.85 2465.24 1511.86 2480.91 1554.2C2496.57 1596.53 2520.42 1635.37 2551.1 1668.49C2581.77 1701.6 2618.67 1728.35 2659.69 1747.2C2700.7 1766.05 2745.03 1776.63 2790.14 1778.35Z" fill="#A9EA9C"/>
<path d="M2669.69 2654.94H2664.31L133.938 2557.84C115.788 2557.16 97.9511 2552.9 81.4452 2545.33C64.9393 2537.75 50.088 2526.99 37.7395 2513.67C25.391 2500.36 15.7874 2484.73 9.47706 2467.7C3.16675 2450.67 0.273406 2432.57 0.962301 2414.42L39.3723 1404.85C40.0652 1386.7 44.3269 1368.86 51.914 1352.36C59.5012 1335.86 70.2651 1321.01 83.591 1308.67C96.9168 1296.33 112.544 1286.73 129.578 1280.43C146.613 1274.13 164.723 1271.25 182.872 1271.95L2713.25 1368.9C2731.4 1369.59 2749.23 1373.85 2765.73 1381.44C2782.24 1389.02 2797.08 1399.79 2809.42 1413.11C2821.76 1426.44 2831.36 1442.07 2837.66 1459.1C2843.96 1476.14 2846.84 1494.25 2846.14 1512.4L2807.73 2521.96C2806.36 2557.67 2791.23 2591.46 2765.49 2616.25C2739.75 2641.04 2705.42 2654.91 2669.69 2654.94ZM2667.85 2562.76C2673.9 2562.99 2679.94 2562.03 2685.62 2559.93C2691.31 2557.83 2696.52 2554.63 2700.96 2550.51C2705.41 2546.4 2709 2541.45 2711.53 2535.94C2714.06 2530.43 2715.48 2524.48 2715.7 2518.43L2754.11 1508.86C2754.35 1502.81 2753.39 1496.77 2751.29 1491.08C2749.19 1485.4 2745.99 1480.19 2741.87 1475.74C2737.76 1471.3 2732.8 1467.71 2727.3 1465.18C2721.79 1462.65 2715.84 1461.23 2709.79 1461L179.722 1364.13C173.649 1363.86 167.581 1364.78 161.868 1366.86C156.154 1368.93 150.908 1372.12 146.431 1376.23C141.954 1380.35 138.335 1385.3 135.782 1390.82C133.229 1396.34 131.793 1402.31 131.556 1408.38L93.1463 2417.95C92.9098 2424 93.8691 2430.04 95.9694 2435.73C98.0698 2441.41 101.27 2446.62 105.387 2451.07C109.503 2455.51 114.456 2459.1 119.962 2461.63C125.467 2464.16 131.417 2465.58 137.471 2465.81L2667.85 2562.76Z" fill="#1D6855"/>
<path d="M1865.69 1566.94L2315.4 1584.15C2345.05 1585.3 2345.05 1539.21 2315.4 1538.05L1865.69 1520.85C1836.04 1519.69 1836.04 1565.79 1865.69 1566.94Z" fill="white"/>
<path d="M2433.78 1586.68L2654.56 1595.13C2684.21 1596.29 2684.21 1550.19 2654.56 1549.04L2433.78 1540.59C2404.12 1539.44 2404.12 1585.53 2433.78 1586.68Z" fill="white"/>
<path d="M1883.05 1056.4L2320.39 950.23C2349.2 943.24 2336.98 898.761 2308.1 905.752L1870.76 1011.92C1841.96 1018.91 1854.17 1063.39 1883.05 1056.4Z" fill="white"/>
<path d="M2434.85 920.423L2649.56 868.493C2678.37 861.502 2666.16 817.024 2637.27 824.014L2422.56 876.175C2393.75 883.166 2405.97 927.644 2434.85 920.654V920.423Z" fill="white"/>
<path d="M223.742 2370.17L673.446 2387.38C703.099 2388.53 703.099 2342.44 673.446 2341.28L223.742 2324.08C194.089 2322.92 194.089 2369.02 223.742 2370.17Z" fill="white"/>
<path d="M792.21 2389.53L1012.99 2397.98C1042.64 2399.13 1042.64 2353.04 1012.99 2351.89L792.21 2343.44C762.557 2342.28 762.557 2388.38 792.21 2389.53Z" fill="white"/>
<path d="M1481.82 2029.32C1483.51 1985.45 1459.31 1955.19 1405.54 1933.14C1366.21 1915.63 1349.23 1907.02 1350 1887.05C1350.53 1872.45 1365.74 1858.32 1396.09 1859.55C1418.26 1859.99 1439.99 1865.84 1459.39 1876.6L1477.52 1821.37C1455.95 1809.89 1432.03 1803.56 1407.61 1802.85L1409.69 1749.08L1356.45 1747.01L1354.14 1806.23C1308.05 1817.45 1280.55 1849.56 1278.94 1890.74C1277.17 1935.98 1309.67 1965.17 1360.52 1985.76C1397.32 1999.13 1411.45 2011.73 1410.76 2030.32C1409.92 2051.6 1392.17 2064.27 1360.21 2063.04C1333.33 2061.58 1307.1 2054.21 1283.39 2041.46L1265.26 2098.07C1289.18 2110.26 1315.31 2117.49 1342.08 2119.35L1340.01 2173.13L1393.25 2175.2L1393.78 2161.91L1395.47 2117.74C1452.24 2107.6 1480.21 2071.65 1481.82 2029.32Z" fill="#91CD86"/>
<path d="M1374.89 2344.05C1369.77 2344.05 1364.82 2344.05 1360.06 2344.05C1284.47 2341.15 1211.43 2315.91 1150.19 2271.5C1088.95 2227.1 1042.24 2165.53 1015.99 2094.58C989.739 2023.64 985.113 1946.5 1002.7 1872.92C1020.29 1799.35 1059.29 1732.64 1114.79 1681.23C1170.29 1629.83 1239.79 1596.03 1314.49 1584.13C1389.2 1572.22 1465.75 1582.73 1534.49 1614.33C1603.22 1645.93 1661.03 1697.2 1700.63 1761.66C1740.22 1826.12 1759.81 1900.87 1756.91 1976.47C1752.95 2075.18 1710.99 2168.55 1639.79 2237.05C1568.6 2305.55 1473.69 2343.89 1374.89 2344.05ZM1374.89 1655.9C1295.97 1657.54 1220.76 1689.66 1164.98 1745.51C1109.21 1801.36 1077.2 1876.62 1075.66 1955.54C1074.13 2034.45 1103.17 2110.91 1156.73 2168.89C1210.28 2226.87 1284.19 2261.89 1362.98 2266.61H1374.81C1453.8 2266.48 1529.68 2235.81 1586.58 2181.01C1643.47 2126.22 1676.98 2051.55 1680.09 1972.62C1681.64 1932.51 1675.26 1892.48 1661.33 1854.83C1647.4 1817.17 1626.19 1782.64 1598.92 1753.18C1571.64 1723.73 1538.82 1699.93 1502.35 1683.16C1465.87 1666.39 1426.45 1656.97 1386.33 1655.43L1374.89 1655.9Z" fill="#91CD86"/>
</svg>
